<?xml version="1.0" encoding="utf-8"?>
<!-- Generator: Adobe Illustrator 23.0.4, SVG Export Plug-In . SVG Version: 6.00 Build 0)  -->
<svg version="1.1" id="Layer_1" xmlns="http://www.w3.org/2000/svg" xmlns:xlink="http://www.w3.org/1999/xlink" x="0px" y="0px"
	 viewBox="0 0 10.1 16.2" style="enable-background:new 0 0 10.1 16.2;" xml:space="preserve">
<style type="text/css">
	.st0{enable-background:new    ;}
</style>
<title>Select</title>
<g class="st0">
	<path d="M6.1,10.5l1.8,4.2C8,14.8,8,15,7.9,15.1s-0.2,0.2-0.3,0.3L6,16.1c-0.1,0.1-0.3,0.1-0.4,0s-0.2-0.2-0.3-0.3l-1.7-4l-2.7,2.8
		c-0.2,0.2-0.4,0.2-0.6,0.1S0,14.4,0,14.2V0.7c0-0.3,0.1-0.4,0.3-0.5s0.4-0.1,0.6,0.1l8.9,9.2C10,9.7,10,9.9,9.9,10.1
		s-0.3,0.4-0.5,0.4H6.1z"/>
</g>
</svg>
