<svg id="Layer_1" data-name="Layer 1" xmlns="http://www.w3.org/2000/svg" viewBox="0 0 14 14"><title>Scale-to-fit_option2</title><path d="M10,10.77a.74.74,0,0,1,.21-.53.73.73,0,0,1,.54-.22h3.87a.4.4,0,0,1,.27.11.37.37,0,0,1,.11.27v1.25a.36.36,0,0,1-.11.26.4.4,0,0,1-.27.11H12v2.63a.36.36,0,0,1-.11.26.4.4,0,0,1-.27.11H10.37a.36.36,0,0,1-.26-.11.33.33,0,0,1-.11-.26ZM15,22.4a.37.37,0,0,0-.11-.27.4.4,0,0,0-.27-.11H12V19.4a.37.37,0,0,0-.11-.27.4.4,0,0,0-.27-.11H10.37a.36.36,0,0,0-.26.11.33.33,0,0,0-.11.27v3.87a.72.72,0,0,0,.21.53.73.73,0,0,0,.54.22h3.87a.4.4,0,0,0,.27-.11.36.36,0,0,0,.11-.26Zm4-10.75a.33.33,0,0,0,.11.26.36.36,0,0,0,.26.11H22v2.63a.33.33,0,0,0,.11.26.36.36,0,0,0,.26.11h1.25a.4.4,0,0,0,.27-.11.36.36,0,0,0,.11-.26V10.77a.75.75,0,0,0-.22-.53.73.73,0,0,0-.53-.22H19.37a.36.36,0,0,0-.26.11.33.33,0,0,0-.11.27ZM22.37,19a.36.36,0,0,0-.26.11.33.33,0,0,0-.11.27V22H19.37a.36.36,0,0,0-.26.11.33.33,0,0,0-.11.27v1.25a.33.33,0,0,0,.11.26.36.36,0,0,0,.26.11h3.88a.75.75,0,0,0,.75-.75V19.4a.37.37,0,0,0-.11-.27.4.4,0,0,0-.27-.11Z" transform="translate(-10 -10.02)"/></svg>