<?xml version="1.0" encoding="utf-8"?>
<!-- Generator: Adobe Illustrator 23.0.4, SVG Export Plug-In . SVG Version: 6.00 Build 0)  -->
<svg version="1.1" id="Layer_1" xmlns="http://www.w3.org/2000/svg" xmlns:xlink="http://www.w3.org/1999/xlink" x="0px" y="0px"
	 viewBox="0 0 16.4 16.2" style="enable-background:new 0 0 16.4 16.2;" xml:space="preserve">
<style type="text/css">
	.st0{enable-background:new    ;}
</style>
<title>Zoom-pan</title>
<g class="st0">
	<path d="M8.5,15.9C8.4,16,8.2,16.1,8,16.1S7.6,16,7.5,15.9L5,13.4c-0.1-0.2-0.2-0.3-0.2-0.5s0.1-0.4,0.2-0.6s0.3-0.2,0.5-0.2h1.6V9
		H4v1.5c0,0.2-0.1,0.4-0.2,0.5s-0.3,0.2-0.5,0.2S2.9,11.1,2.8,11L0.2,8.6C0.1,8.5,0,8.3,0,8.1s0.1-0.4,0.2-0.6L2.7,5
		C2.9,4.9,3,4.8,3.2,4.8S3.6,4.9,3.7,5S4,5.4,4,5.6v1.6h3.2V4H5.5C5.3,4,5.1,4,5,3.8S4.8,3.5,4.8,3.3s0-0.4,0.2-0.5l2.5-2.5
		C7.6,0.2,7.8,0.1,8,0.1s0.4,0.1,0.5,0.2L11,2.8c0.1,0.2,0.2,0.3,0.2,0.5S11.1,3.7,11,3.8S10.7,4,10.5,4H8.9v3.2H12V5.6
		c0-0.2,0.1-0.4,0.2-0.5s0.3-0.2,0.5-0.2s0.4,0.1,0.5,0.2l2.6,2.4C15.9,7.7,16,7.9,16,8.1s-0.1,0.4-0.2,0.5l-2.5,2.5
		c-0.2,0.2-0.3,0.2-0.5,0.2s-0.4-0.1-0.5-0.2S12,10.8,12,10.5V9H8.9v3.2h1.6c0.2,0,0.4,0.1,0.5,0.2s0.2,0.3,0.2,0.5
		s-0.1,0.4-0.2,0.5L8.5,15.9z"/>
</g>
</svg>
