<?xml version="1.0" encoding="utf-8"?>
<!-- Generator: Adobe Illustrator 23.0.4, SVG Export Plug-In . SVG Version: 6.00 Build 0)  -->
<svg version="1.1" id="Layer_1" xmlns="http://www.w3.org/2000/svg" xmlns:xlink="http://www.w3.org/1999/xlink" x="0px" y="0px"
	 viewBox="0 0 16.3 16.1" style="enable-background:new 0 0 16.3 16.1;" xml:space="preserve">
<style type="text/css">
	.st0{enable-background:new    ;}
</style>
<title>Zoom-out</title>
<g class="st0">
	<path d="M14.9,15.9c-0.1,0.1-0.3,0.2-0.5,0.2S14,16,13.9,15.9l-3.1-3.1c-0.1-0.1-0.2-0.3-0.2-0.5v-0.5c-1.2,0.9-2.5,1.4-4,1.4
		c-1.2,0-2.3-0.3-3.3-0.9s-1.8-1.4-2.4-2.4S0,7.8,0,6.6s0.3-2.3,0.9-3.3S2.2,1.5,3.2,1s2.1-0.9,3.3-0.9S8.8,0.4,9.8,1
		s1.8,1.4,2.4,2.4s0.8,2,0.8,3.2c0,1.5-0.5,2.8-1.4,4h0.5c0.2,0,0.4,0.1,0.5,0.2l3.1,3.1c0.1,0.1,0.2,0.3,0.2,0.5s-0.1,0.4-0.2,0.5
		L14.9,15.9z M10.2,4.5C9.8,3.8,9.3,3.3,8.6,2.9S7.3,2.3,6.5,2.3S5,2.5,4.4,2.9S3.2,3.8,2.8,4.5S2.2,5.8,2.2,6.6s0.2,1.5,0.6,2.1
		s0.9,1.2,1.5,1.5s1.4,0.6,2.1,0.6s1.5-0.2,2.1-0.6S9.7,9.3,10,8.7s0.6-1.4,0.6-2.1S10.6,5.1,10.2,4.5z M9.5,7.1
		c0,0.1,0,0.2-0.1,0.3C9.3,7.5,9.2,7.5,9.1,7.5H3.9c-0.1,0-0.2,0-0.3-0.1S3.5,7.2,3.5,7.1v-1c0-0.1,0-0.2,0.1-0.3s0.2-0.1,0.3-0.1
		h5.2c0.1,0,0.2,0,0.3,0.1S9.5,6,9.5,6.1V7.1z"/>
</g>
</svg>
