<?xml version="1.0" encoding="UTF-8" standalone="no"?>
<!--
   Copyright (c) 2023, Datadog, Inc. All rights reserved.

   DO NOT ALTER OR REMOVE COPYRIGHT NOTICES OR THIS FILE HEADER.

   The contents of this file are subject to the terms of either the Universal Permissive License
   v 1.0 as shown at https://oss.oracle.com/licenses/upl

   or the following license:

   Redistribution and use in source and binary forms, with or without modification, are permitted
   provided that the following conditions are met:

   1. Redistributions of source code must retain the above copyright notice, this list of conditions
   and the following disclaimer.

   2. Redistributions in binary form must reproduce the above copyright notice, this list of
   conditions and the following disclaimer in the documentation and/or other materials provided with
   the distribution.

   3. Neither the name of the copyright holder nor the names of its contributors may be used to
   endorse or promote products derived from this software without specific prior written permission.

   THIS SOFTWARE IS PROVIDED BY THE COPYRIGHT HOLDERS AND CONTRIBUTORS "AS IS" AND ANY EXPRESS OR
   IMPLIED WARRANTIES, INCLUDING, BUT NOT LIMITED TO, THE IMPLIED WARRANTIES OF MERCHANTABILITY AND
   FITNESS FOR A PARTICULAR PURPOSE ARE DISCLAIMED. IN NO EVENT SHALL THE COPYRIGHT HOLDER OR
   CONTRIBUTORS BE LIABLE FOR ANY DIRECT, INDIRECT, INCIDENTAL, SPECIAL, EXEMPLARY, OR CONSEQUENTIAL
   DAMAGES (INCLUDING, BUT NOT LIMITED TO, PROCUREMENT OF SUBSTITUTE GOODS OR SERVICES; LOSS OF USE,
   DATA, OR PROFITS; OR BUSINESS INTERRUPTION) HOWEVER CAUSED AND ON ANY THEORY OF LIABILITY,
   WHETHER IN CONTRACT, STRICT LIABILITY, OR TORT (INCLUDING NEGLIGENCE OR OTHERWISE) ARISING IN ANY
   WAY OUT OF THE USE OF THIS SOFTWARE, EVEN IF ADVISED OF THE POSSIBILITY OF SUCH DAMAGE.
-->
<svg
        width="200"
        height="200"
        viewBox="0 0 200 200"
        version="1.1"
        xmlns="http://www.w3.org/2000/svg">
    <g id="magnifier">
        <path
                fill="#637CA5"
                stroke-width="7"
                stroke="#637CA5"
                d="M 87.359375,4.1269531 C 64.924608,3.3040022 42.455816,11.502669 25.755859,28.015625 a 9,9 0 0 0 -0.07227,12.728516 9,9 0 0 0 12.728515,0.07031 c 20.926187,-20.691861 53.4311,-24.735272 78.935556,-9.78125 25.50443,14.954022 37.33223,44.84362 28.92577,72.796879 -8.40646,27.95325 -34.95851,46.73868 -64.646482,45.55273 C 51.938982,148.19687 27.031455,127.36761 20.945312,98.841797 A 9,9 0 0 0 10.265625,91.917969 9,9 0 0 0 3.3417969,102.59766 C 11.149535,139.1926 43.190479,165.86235 80.910156,167.36914 118.62983,168.87593 152.73164,144.85971 163.51172,109.01367 174.2918,73.16763 158.93855,34.55223 126.45117,15.503906 114.26841,8.360785 100.82023,4.6207237 87.359375,4.1269531 Z"
                id="circle"
        />
        <path
                fill="#637CA5"
                stroke="#637CA5"
                stroke-width="26"
                stroke-linecap="round"
                d="m 137.10341,140.73762 c 82.4111,79.18213 0,0 0,0 z"
                id="handle"
        />
        <path
                fill="#637CA5"
                stroke="#637CA5"
                stroke-width="22"
                stroke-linecap="round"
                d="m 15.127275,14.1251 1.984848,39.242378 39.760602,-3.034511"
                id="arrow"
        />
    </g>
</svg>
